# xmcd
#
# Track frame offsets: 
#        150
#        17404
#        34538
#        53574
#        87891
#        104286
#        118721
#        135589
#        166771
#
# Disc length: 2416 seconds
#
# Revision: 4
# Processed by: cddbd v1.5.2PL0 Copyright (c) Steve Scherf et al.
# Submitted via: ExactAudioCopyFreeDBPlugin 1.0
#
DISCID=5f096e09
DTITLE=Breakout - Kamienie
DYEAR=1974
DGENRE=Polish Classic Rock
TTITLE0=Czy zgadniesz
TTITLE1=Czułość niosę tobie
TTITLE2=Spiekota
TTITLE3=Modlitwa
TTITLE4=Bądź słońcem
TTITLE5=Pójdę prosto
TTITLE6=Koło mego okna
TTITLE7=Kamienie
TTITLE8=Tobie ta pieśń
EXTD=POLISH BLUES YEAR: 1974
EXTT0=
EXTT1=
EXTT2=
EXTT3=
EXTT4=
EXTT5=
EXTT6=
EXTT7=
EXTT8=
PLAYORDER=
